REM DIRINDEX 1\6,1\2\7,1\2\8,1\2\9,1\3\10,1\3\11,1\4\12,1\4\13,1\4\14,1\5\15,1\5\16,1\5\17
REM DIRNAME cjc040,folder01,folder02,folder03,folder04,folder05,folder06,folder07,folder08,folder09,folder10,folder11,folder12,folder13,folder14,folder15,folder16
TITLE ""
FILE "P2Q_t2_0340-0357.mp3" MP3
  TRACK 01 AUDIO
    TITLE "7:cjc040_4848"
    INDEX 01 00:00:00
  TRACK 02 AUDIO
    TITLE "0:"
    INDEX 01 00:01:21
  TRACK 03 AUDIO
    TITLE "8:cjc040_4849"
    INDEX 01 00:01:73
  TRACK 04 AUDIO
    TITLE "0:"
    INDEX 01 00:04:74
  TRACK 05 AUDIO
    TITLE "9:cjc040_4850"
    INDEX 01 00:05:54
  TRACK 06 AUDIO
    TITLE "0:"
    INDEX 01 00:07:05
  TRACK 07 AUDIO
    TITLE "7:cjc040_4851"
    INDEX 01 00:08:64
  TRACK 08 AUDIO
    TITLE "0:"
    INDEX 01 00:10:21
  TRACK 09 AUDIO
    TITLE "8:cjc040_4852"
    INDEX 01 00:10:70
  TRACK 10 AUDIO
    TITLE "0:"
    INDEX 01 00:13:14
  TRACK 11 AUDIO
    TITLE "9:cjc040_4853"
    INDEX 01 00:13:65
  TRACK 12 AUDIO
    TITLE "0:"
    INDEX 01 00:15:23
  TRACK 13 AUDIO
    TITLE "7:cjc040_4854"
    INDEX 01 00:17:08
  TRACK 14 AUDIO
    TITLE "0:"
    INDEX 01 00:18:11
  TRACK 15 AUDIO
    TITLE "8:cjc040_4855"
    INDEX 01 00:18:68
  TRACK 16 AUDIO
    TITLE "0:"
    INDEX 01 00:20:71
  TRACK 17 AUDIO
    TITLE "9:cjc040_4856"
    INDEX 01 00:21:53
  TRACK 18 AUDIO
    TITLE "0:"
    INDEX 01 00:22:60
  TRACK 19 AUDIO
    TITLE "7:cjc040_4857"
    INDEX 01 00:24:43
  TRACK 20 AUDIO
    TITLE "0:"
    INDEX 01 00:25:60
  TRACK 21 AUDIO
    TITLE "8:cjc040_4858"
    INDEX 01 00:26:42
  TRACK 22 AUDIO
    TITLE "0:"
    INDEX 01 00:28:68
  TRACK 23 AUDIO
    TITLE "9:cjc040_4859"
    INDEX 01 00:29:48
  TRACK 24 AUDIO
    TITLE "0:"
    INDEX 01 00:30:65
  TRACK 25 AUDIO
    TITLE "7:cjc040_4860"
    INDEX 01 00:32:52
  TRACK 26 AUDIO
    TITLE "0:"
    INDEX 01 00:33:71
  TRACK 27 AUDIO
    TITLE "8:cjc040_4861"
    INDEX 01 00:34:47
  TRACK 28 AUDIO
    TITLE "0:"
    INDEX 01 00:35:59
  TRACK 29 AUDIO
    TITLE "9:cjc040_4862"
    INDEX 01 00:36:38
  TRACK 30 AUDIO
    TITLE "0:"
    INDEX 01 00:37:65
  TRACK 31 AUDIO
    TITLE "7:cjc040_4863"
    INDEX 01 00:39:47
  TRACK 32 AUDIO
    TITLE "0:"
    INDEX 01 00:40:72
  TRACK 33 AUDIO
    TITLE "8:cjc040_4864"
    INDEX 01 00:41:49
  TRACK 34 AUDIO
    TITLE "0:"
    INDEX 01 00:44:14
  TRACK 35 AUDIO
    TITLE "9:cjc040_4865"
    INDEX 01 00:44:69
  TRACK 36 AUDIO
    TITLE "0:"
    INDEX 01 00:46:23
  TRACK 37 AUDIO
    TITLE "7:cjc040_4866"
    INDEX 01 00:48:06
  TRACK 38 AUDIO
    TITLE "0:"
    INDEX 01 00:49:12
  TRACK 39 AUDIO
    TITLE "8:cjc040_4867"
    INDEX 01 00:49:69
  TRACK 40 AUDIO
    TITLE "0:"
    INDEX 01 00:52:30
  TRACK 41 AUDIO
    TITLE "9:cjc040_4868"
    INDEX 01 00:53:06
  TRACK 42 AUDIO
    TITLE "0:"
    INDEX 01 00:54:11
  TRACK 43 AUDIO
    TITLE "7:cjc040_4869"
    INDEX 01 00:55:71
  TRACK 44 AUDIO
    TITLE "0:"
    INDEX 01 00:57:17
  TRACK 45 AUDIO
    TITLE "8:cjc040_4870"
    INDEX 01 00:57:74
  TRACK 46 AUDIO
    TITLE "0:"
    INDEX 01 00:58:71
  TRACK 47 AUDIO
    TITLE "9:cjc040_4871"
    INDEX 01 00:59:51
  TRACK 48 AUDIO
    TITLE "0:"
    INDEX 01 01:00:72
  TRACK 49 AUDIO
    TITLE "7:cjc040_4872"
    INDEX 01 01:02:55
  TRACK 50 AUDIO
    TITLE "0:"
    INDEX 01 01:04:03
  TRACK 51 AUDIO
    TITLE "8:cjc040_4873"
    INDEX 01 01:04:62
  TRACK 52 AUDIO
    TITLE "0:"
    INDEX 01 01:06:71
  TRACK 53 AUDIO
    TITLE "9:cjc040_4874"
    INDEX 01 01:07:51
  TRACK 54 AUDIO
    TITLE "0:"
    INDEX 01 01:08:72
  TRACK 55 AUDIO
    TITLE "7:cjc040_4875"
    INDEX 01 01:10:51
  TRACK 56 AUDIO
    TITLE "0:"
    INDEX 01 01:11:68
  TRACK 57 AUDIO
    TITLE "8:cjc040_4876"
    INDEX 01 01:12:48
  TRACK 58 AUDIO
    TITLE "0:"
    INDEX 01 01:13:59
  TRACK 59 AUDIO
    TITLE "9:cjc040_4877"
    INDEX 01 01:14:41
  TRACK 60 AUDIO
    TITLE "0:"
    INDEX 01 01:15:62
  TRACK 61 AUDIO
    TITLE "7:cjc040_4878"
    INDEX 01 01:17:47
  TRACK 62 AUDIO
    TITLE "0:"
    INDEX 01 01:18:60
  TRACK 63 AUDIO
    TITLE "8:cjc040_4879"
    INDEX 01 01:19:40
  TRACK 64 AUDIO
    TITLE "0:"
    INDEX 01 01:20:53
  TRACK 65 AUDIO
    TITLE "9:cjc040_4880"
    INDEX 01 01:21:33
  TRACK 66 AUDIO
    TITLE "0:"
    INDEX 01 01:22:50
  TRACK 67 AUDIO
    TITLE "7:cjc040_4881"
    INDEX 01 01:24:34
  TRACK 68 AUDIO
    TITLE "0:"
    INDEX 01 01:25:58
  TRACK 69 AUDIO
    TITLE "8:cjc040_4882"
    INDEX 01 01:26:38
  TRACK 70 AUDIO
    TITLE "0:"
    INDEX 01 01:29:56
  TRACK 71 AUDIO
    TITLE "9:cjc040_4883"
    INDEX 01 01:30:32
  TRACK 72 AUDIO
    TITLE "0:"
    INDEX 01 01:31:59
  TRACK 73 AUDIO
    TITLE "7:cjc040_4884"
    INDEX 01 01:33:40
  TRACK 74 AUDIO
    TITLE "0:"
    INDEX 01 01:34:59
  TRACK 75 AUDIO
    TITLE "8:cjc040_4885"
    INDEX 01 01:35:41
  TRACK 76 AUDIO
    TITLE "0:"
    INDEX 01 01:38:14
  TRACK 77 AUDIO
    TITLE "9:cjc040_4886"
    INDEX 01 01:38:69
  TRACK 78 AUDIO
    TITLE "0:"
    INDEX 01 01:40:17
  TRACK 79 AUDIO
    TITLE "7:cjc040_4887"
    INDEX 01 01:41:67
  TRACK 80 AUDIO
    TITLE "0:"
    INDEX 01 01:42:71
  TRACK 81 AUDIO
    TITLE "8:cjc040_4888"
    INDEX 01 01:43:54
  TRACK 82 AUDIO
    TITLE "0:"
    INDEX 01 01:45:63
  TRACK 83 AUDIO
    TITLE "9:cjc040_4889"
    INDEX 01 01:46:43
  TRACK 84 AUDIO
    TITLE "0:"
    INDEX 01 01:47:54
  TRACK 85 AUDIO
    TITLE "7:cjc040_4890"
    INDEX 01 01:49:39
  TRACK 86 AUDIO
    TITLE "0:"
    INDEX 01 01:50:41
  TRACK 87 AUDIO
    TITLE "8:cjc040_4891"
    INDEX 01 01:51:27
  TRACK 88 AUDIO
    TITLE "0:"
    INDEX 01 01:54:50
  TRACK 89 AUDIO
    TITLE "9:cjc040_4892"
    INDEX 01 01:55:28
  TRACK 90 AUDIO
    TITLE "0:"
    INDEX 01 01:56:34
  TRACK 91 AUDIO
    TITLE "7:cjc040_4893"
    INDEX 01 01:58:17
  TRACK 92 AUDIO
    TITLE "0:"
    INDEX 01 01:59:44
  TRACK 93 AUDIO
    TITLE "8:cjc040_4894"
    INDEX 01 02:00:22
  TRACK 94 AUDIO
    TITLE "0:"
    INDEX 01 02:01:23
  TRACK 95 AUDIO
    TITLE "9:cjc040_4895"
    INDEX 01 02:02:05
  TRACK 96 AUDIO
    TITLE "0:"
    INDEX 01 02:03:32
  TRACK 97 AUDIO
    TITLE "7:cjc040_4896"
    INDEX 01 02:05:15
  TRACK 98 AUDIO
    TITLE "0:"
    INDEX 01 02:06:42
  TRACK 99 AUDIO
    TITLE "8:cjc040_4897"
    INDEX 01 02:07:20
  TRACK 100 AUDIO
    TITLE "0:"
    INDEX 01 02:10:40
  TRACK 101 AUDIO
    TITLE "9:cjc040_4898"
    INDEX 01 02:11:21
  TRACK 102 AUDIO
    TITLE "0:"
    INDEX 01 02:12:50
  TRACK 103 AUDIO
    TITLE "7:cjc040_4899"
    INDEX 01 02:14:31
  TRACK 104 AUDIO
    TITLE "0:"
    INDEX 01 02:15:49
  TRACK 105 AUDIO
    TITLE "8:cjc040_4900"
    INDEX 01 02:16:28
  TRACK 106 AUDIO
    TITLE "0:"
    INDEX 01 02:19:74
  TRACK 107 AUDIO
    TITLE "9:cjc040_4901"
    INDEX 01 02:20:54
  TRACK 108 AUDIO
    TITLE "0:"
    INDEX 01 02:22:04
